<svg xmlns="http://www.w3.org/2000/svg" xmlns:xlink="http://www.w3.org/1999/xlink" width="500" zoomAndPan="magnify" viewBox="0 0 375 374.999991" height="500" preserveAspectRatio="xMidYMid meet" version="1.0"><defs><g/><clipPath id="3521140f5e"><path d="M 108.40625 125 L 266.65625 125 L 266.65625 178.253906 L 108.40625 178.253906 Z M 108.40625 125 " clip-rule="nonzero"/></clipPath><clipPath id="eba7221175"><path d="M 173 112.253906 L 204 112.253906 L 204 153 L 173 153 Z M 173 112.253906 " clip-rule="nonzero"/></clipPath><clipPath id="4f86179f49"><path d="M 203 112.253906 L 230 112.253906 L 230 142 L 203 142 Z M 203 112.253906 " clip-rule="nonzero"/></clipPath></defs><g clip-path="url(#3521140f5e)"><path fill="#003984" d="M 144.066406 169.59375 L 221.339844 139.132812 L 220.835938 130.601562 C 238.222656 125.828125 250.632812 124.738281 259.335938 126.957031 C 258.972656 129.730469 254.601562 137.589844 246.199219 150.507812 C 241.558594 158.832031 241.816406 164.058594 246.976562 166.183594 C 248.910156 167.128906 249.753906 168.894531 249.492188 171.460938 L 248.78125 171.5 C 259.894531 171.707031 266.570312 172.164062 266.585938 172.835938 C 266.609375 174.378906 231.222656 176.492188 187.546875 177.542969 C 143.871094 178.605469 108.429688 178.207031 108.40625 176.675781 C 108.390625 175.921875 116.71875 175.039062 130.292969 174.210938 C 132.71875 170.941406 137.414062 167.089844 144.378906 162.667969 Z M 144.066406 169.59375 " fill-opacity="1" fill-rule="evenodd"/></g><path fill="#737373" d="M 169.273438 150.324219 L 166.863281 150.46875 L 167.070312 153.996094 L 169.484375 153.851562 Z M 169.273438 150.324219 " fill-opacity="1" fill-rule="evenodd"/><path fill="#737373" d="M 165.125 150.558594 L 162.726562 150.699219 L 162.921875 154.226562 L 165.332031 154.097656 Z M 165.125 150.558594 " fill-opacity="1" fill-rule="evenodd"/><path fill="#737373" d="M 160.585938 150.816406 L 158.1875 150.960938 L 158.382812 154.488281 L 160.792969 154.359375 Z M 160.585938 150.816406 " fill-opacity="1" fill-rule="evenodd"/><path fill="#737373" d="M 156.554688 151.050781 L 154.15625 151.195312 L 154.347656 154.71875 L 156.761719 154.589844 Z M 156.554688 151.050781 " fill-opacity="1" fill-rule="evenodd"/><path fill="#003984" d="M 170.132812 149.429688 L 153.089844 150.46875 L 153.414062 157.027344 L 147.140625 157.273438 L 147.28125 160.800781 L 150.175781 162.164062 L 153.480469 161.96875 L 153.570312 163.589844 L 140.65625 168.828125 L 139.839844 155.5 L 141.539062 154.460938 L 140.8125 142.011719 L 144.066406 141.832031 L 144.675781 152.542969 L 148.097656 150.453125 L 147.4375 138.769531 L 150.679688 138.589844 L 151.261719 148.714844 L 154.777344 148.507812 L 164.761719 145.125 L 164.917969 147.9375 L 171.753906 147.484375 L 172.167969 154.707031 L 170.480469 155.539062 Z M 170.132812 149.429688 " fill-opacity="1" fill-rule="evenodd"/><g clip-path="url(#eba7221175)"><path fill="#737373" d="M 202.070312 121.589844 L 188.984375 126.542969 L 188.46875 117.464844 L 201.550781 112.511719 Z M 187.117188 127.136719 L 174.035156 132.09375 L 173.515625 123.015625 L 186.601562 118.0625 Z M 187.714844 137.488281 L 174.632812 142.441406 L 174.113281 133.363281 L 187.195312 128.410156 Z M 187.78125 138.628906 L 188.300781 147.707031 L 175.214844 152.660156 L 174.695312 143.582031 Z M 189.660156 138.03125 L 202.746094 133.078125 L 203.261719 142.15625 L 190.179688 147.109375 Z M 189.078125 127.8125 L 202.160156 122.859375 L 202.679688 131.9375 L 189.59375 136.890625 Z M 189.078125 127.8125 " fill-opacity="1" fill-rule="evenodd"/></g><g clip-path="url(#4f86179f49)"><path fill="#737373" d="M 204.300781 131.417969 L 203.78125 122.339844 L 216.867188 117.386719 L 216.722656 117.386719 L 228.863281 112.769531 L 228.941406 114.234375 L 216.945312 118.839844 L 216.867188 117.515625 L 216.855469 117.375 L 217.371094 126.449219 L 204.289062 131.40625 Z M 217.476562 129.148438 L 217.398438 127.824219 L 217.386719 127.683594 L 217.902344 136.761719 L 204.820312 141.714844 L 204.300781 132.636719 L 217.386719 127.683594 L 217.292969 127.683594 L 229.316406 123.078125 L 229.394531 124.542969 L 217.464844 129.148438 Z M 217.476562 129.148438 " fill-opacity="1" fill-rule="evenodd"/></g><g fill="#ffffff" fill-opacity="1"><g transform="translate(117.811967, 213.947506)"><g><path d="M 16.34375 0 C 16.039062 0 15.835938 -0.148438 15.734375 -0.453125 L 14.84375 -3.421875 C 14.820312 -3.523438 14.757812 -3.578125 14.65625 -3.578125 L 6.8125 -3.578125 C 6.707031 -3.578125 6.644531 -3.523438 6.625 -3.421875 L 5.71875 -0.453125 C 5.613281 -0.148438 5.414062 0 5.125 0 L 1.40625 0 C 1.21875 0 1.078125 -0.0546875 0.984375 -0.171875 C 0.898438 -0.296875 0.890625 -0.441406 0.953125 -0.609375 L 7.765625 -21.9375 C 7.878906 -22.238281 8.082031 -22.390625 8.375 -22.390625 L 13.078125 -22.390625 C 13.378906 -22.390625 13.582031 -22.238281 13.6875 -21.9375 L 20.5 -0.609375 C 20.519531 -0.566406 20.53125 -0.503906 20.53125 -0.421875 C 20.53125 -0.285156 20.488281 -0.179688 20.40625 -0.109375 C 20.320312 -0.0351562 20.203125 0 20.046875 0 Z M 7.734375 -7.296875 C 7.710938 -7.140625 7.769531 -7.0625 7.90625 -7.0625 L 13.5625 -7.0625 C 13.6875 -7.0625 13.738281 -7.140625 13.71875 -7.296875 L 10.84375 -17.046875 C 10.820312 -17.128906 10.785156 -17.171875 10.734375 -17.171875 C 10.679688 -17.171875 10.632812 -17.128906 10.59375 -17.046875 Z M 7.734375 -7.296875 "/></g></g></g><g fill="#ffffff" fill-opacity="1"><g transform="translate(138.623234, 213.947506)"><g><path d="M 2.5 0 C 2.132812 0 1.953125 -0.179688 1.953125 -0.546875 L 1.953125 -21.84375 C 1.953125 -22.207031 2.132812 -22.390625 2.5 -22.390625 L 5.921875 -22.390625 C 6.273438 -22.390625 6.453125 -22.207031 6.453125 -21.84375 L 6.453125 -0.546875 C 6.453125 -0.179688 6.273438 0 5.921875 0 Z M 2.5 0 "/></g></g></g><g fill="#ffffff" fill-opacity="1"><g transform="translate(146.391258, 213.947506)"><g><path d="M 2.5 0 C 2.132812 0 1.953125 -0.179688 1.953125 -0.546875 L 1.953125 -21.84375 C 1.953125 -22.207031 2.132812 -22.390625 2.5 -22.390625 L 5.796875 -22.390625 C 6.066406 -22.390625 6.273438 -22.269531 6.421875 -22.03125 L 14.421875 -8.734375 C 14.460938 -8.648438 14.507812 -8.617188 14.5625 -8.640625 C 14.625 -8.660156 14.65625 -8.710938 14.65625 -8.796875 L 14.65625 -21.84375 C 14.65625 -22.207031 14.832031 -22.390625 15.1875 -22.390625 L 18.546875 -22.390625 C 18.910156 -22.390625 19.09375 -22.207031 19.09375 -21.84375 L 19.09375 -0.546875 C 19.09375 -0.179688 18.910156 0 18.546875 0 L 15.28125 0 C 15.03125 0 14.820312 -0.128906 14.65625 -0.390625 L 6.625 -13.8125 C 6.582031 -13.894531 6.53125 -13.925781 6.46875 -13.90625 C 6.414062 -13.882812 6.390625 -13.832031 6.390625 -13.75 L 6.421875 -0.546875 C 6.421875 -0.179688 6.242188 0 5.890625 0 Z M 2.5 0 "/></g></g></g><g fill="#ffffff" fill-opacity="1"><g transform="translate(166.78692, 213.947506)"><g/></g></g><g fill="#ffffff" fill-opacity="1"><g transform="translate(172.540924, 213.947506)"><g><path d="M 9.8125 0.25 C 8.175781 0.25 6.726562 -0.078125 5.46875 -0.734375 C 4.207031 -1.398438 3.226562 -2.320312 2.53125 -3.5 C 1.84375 -4.6875 1.5 -6.054688 1.5 -7.609375 L 1.5 -14.78125 C 1.5 -16.332031 1.84375 -17.703125 2.53125 -18.890625 C 3.226562 -20.085938 4.207031 -21.007812 5.46875 -21.65625 C 6.726562 -22.3125 8.175781 -22.640625 9.8125 -22.640625 C 11.4375 -22.640625 12.867188 -22.316406 14.109375 -21.671875 C 15.359375 -21.035156 16.332031 -20.171875 17.03125 -19.078125 C 17.726562 -17.984375 18.078125 -16.765625 18.078125 -15.421875 L 18.078125 -15.359375 C 18.078125 -14.992188 17.894531 -14.8125 17.53125 -14.8125 L 14.109375 -14.8125 C 13.929688 -14.8125 13.796875 -14.835938 13.703125 -14.890625 C 13.609375 -14.941406 13.5625 -15 13.5625 -15.0625 L 13.5625 -15.28125 C 13.5625 -16.269531 13.21875 -17.097656 12.53125 -17.765625 C 11.851562 -18.441406 10.945312 -18.78125 9.8125 -18.78125 C 8.664062 -18.78125 7.742188 -18.421875 7.046875 -17.703125 C 6.359375 -16.984375 6.015625 -16.050781 6.015625 -14.90625 L 6.015625 -7.484375 C 6.015625 -6.328125 6.382812 -5.390625 7.125 -4.671875 C 7.875 -3.960938 8.828125 -3.609375 9.984375 -3.609375 C 11.085938 -3.609375 11.96875 -3.898438 12.625 -4.484375 C 13.289062 -5.078125 13.625 -5.894531 13.625 -6.9375 L 13.625 -8.34375 C 13.625 -8.476562 13.5625 -8.546875 13.4375 -8.546875 L 10.046875 -8.546875 C 9.679688 -8.546875 9.5 -8.722656 9.5 -9.078125 L 9.5 -11.703125 C 9.5 -12.066406 9.679688 -12.25 10.046875 -12.25 L 17.53125 -12.25 C 17.894531 -12.25 18.078125 -12.066406 18.078125 -11.703125 L 18.078125 -7.640625 C 18.078125 -6.023438 17.734375 -4.617188 17.046875 -3.421875 C 16.367188 -2.222656 15.40625 -1.3125 14.15625 -0.6875 C 12.90625 -0.0625 11.457031 0.25 9.8125 0.25 Z M 9.8125 0.25 "/></g></g></g><g fill="#ffffff" fill-opacity="1"><g transform="translate(191.306195, 213.947506)"><g><path d="M 2.265625 0 C 1.910156 0 1.734375 -0.179688 1.734375 -0.546875 L 1.734375 -21.84375 C 1.734375 -22.207031 1.910156 -22.390625 2.265625 -22.390625 L 5.6875 -22.390625 C 6.050781 -22.390625 6.234375 -22.207031 6.234375 -21.84375 L 6.234375 -0.546875 C 6.234375 -0.179688 6.050781 0 5.6875 0 Z M 2.265625 0 "/></g></g></g><g fill="#ffffff" fill-opacity="1"><g transform="translate(198.626665, 213.947506)"><g><path d="M 8.953125 0.25 C 7.140625 0.25 5.59375 -0.21875 4.3125 -1.15625 C 3.039062 -2.09375 2.164062 -3.367188 1.6875 -4.984375 C 1.394531 -5.992188 1.25 -7.082031 1.25 -8.25 C 1.25 -9.550781 1.410156 -10.679688 1.734375 -11.640625 C 2.222656 -13.222656 3.097656 -14.460938 4.359375 -15.359375 C 5.628906 -16.253906 7.171875 -16.703125 8.984375 -16.703125 C 10.734375 -16.703125 12.234375 -16.253906 13.484375 -15.359375 C 14.734375 -14.460938 15.601562 -13.234375 16.09375 -11.671875 C 16.40625 -10.691406 16.5625 -9.570312 16.5625 -8.3125 C 16.5625 -7.207031 16.425781 -6.128906 16.15625 -5.078125 C 15.664062 -3.421875 14.785156 -2.117188 13.515625 -1.171875 C 12.242188 -0.222656 10.722656 0.25 8.953125 0.25 Z M 8.953125 -3.609375 C 9.640625 -3.609375 10.226562 -3.820312 10.71875 -4.25 C 11.207031 -4.675781 11.554688 -5.265625 11.765625 -6.015625 C 11.941406 -6.585938 12.03125 -7.332031 12.03125 -8.25 C 12.03125 -9.144531 11.941406 -9.898438 11.765625 -10.515625 C 11.554688 -11.242188 11.207031 -11.8125 10.71875 -12.21875 C 10.226562 -12.625 9.617188 -12.828125 8.890625 -12.828125 C 8.191406 -12.828125 7.59375 -12.625 7.09375 -12.21875 C 6.601562 -11.8125 6.253906 -11.242188 6.046875 -10.515625 C 5.878906 -9.898438 5.796875 -9.144531 5.796875 -8.25 C 5.796875 -7.375 5.878906 -6.628906 6.046875 -6.015625 C 6.253906 -5.265625 6.609375 -4.675781 7.109375 -4.25 C 7.617188 -3.820312 8.234375 -3.609375 8.953125 -3.609375 Z M 8.953125 -3.609375 "/></g></g></g><g fill="#ffffff" fill-opacity="1"><g transform="translate(215.793494, 213.947506)"><g><path d="M 16.21875 -12.25 C 16.625 -11.1875 16.828125 -9.863281 16.828125 -8.28125 C 16.828125 -6.75 16.644531 -5.472656 16.28125 -4.453125 C 15.851562 -3.035156 15.078125 -1.894531 13.953125 -1.03125 C 12.835938 -0.175781 11.554688 0.25 10.109375 0.25 C 8.546875 0.25 7.328125 -0.320312 6.453125 -1.46875 C 6.410156 -1.53125 6.363281 -1.554688 6.3125 -1.546875 C 6.257812 -1.535156 6.234375 -1.488281 6.234375 -1.40625 L 6.234375 -0.546875 C 6.234375 -0.179688 6.050781 0 5.6875 0 L 2.265625 0 C 1.910156 0 1.734375 -0.179688 1.734375 -0.546875 L 1.734375 -21.84375 C 1.734375 -22.207031 1.910156 -22.390625 2.265625 -22.390625 L 5.6875 -22.390625 C 6.050781 -22.390625 6.234375 -22.207031 6.234375 -21.84375 L 6.234375 -15.25 C 6.234375 -15.164062 6.257812 -15.113281 6.3125 -15.09375 C 6.363281 -15.070312 6.410156 -15.09375 6.453125 -15.15625 C 7.304688 -16.207031 8.523438 -16.734375 10.109375 -16.734375 C 11.554688 -16.734375 12.816406 -16.328125 13.890625 -15.515625 C 14.972656 -14.703125 15.75 -13.613281 16.21875 -12.25 Z M 11.421875 -5.046875 C 11.867188 -5.878906 12.09375 -6.925781 12.09375 -8.1875 C 12.09375 -9.570312 11.835938 -10.691406 11.328125 -11.546875 C 10.816406 -12.359375 10.066406 -12.765625 9.078125 -12.765625 C 8.179688 -12.765625 7.46875 -12.347656 6.9375 -11.515625 C 6.488281 -10.722656 6.265625 -9.625 6.265625 -8.21875 C 6.265625 -6.894531 6.476562 -5.835938 6.90625 -5.046875 C 7.414062 -4.128906 8.140625 -3.671875 9.078125 -3.671875 C 10.128906 -3.671875 10.910156 -4.128906 11.421875 -5.046875 Z M 11.421875 -5.046875 "/></g></g></g><g fill="#ffffff" fill-opacity="1"><g transform="translate(232.960317, 213.947506)"><g><path d="M 8.25 -16.703125 C 9.632812 -16.703125 10.867188 -16.457031 11.953125 -15.96875 C 13.046875 -15.488281 13.894531 -14.832031 14.5 -14 C 15.113281 -13.175781 15.421875 -12.25 15.421875 -11.21875 L 15.421875 -0.546875 C 15.421875 -0.179688 15.238281 0 14.875 0 L 11.453125 0 C 11.085938 0 10.90625 -0.179688 10.90625 -0.546875 L 10.90625 -1.3125 C 10.90625 -1.394531 10.882812 -1.441406 10.84375 -1.453125 C 10.800781 -1.460938 10.75 -1.4375 10.6875 -1.375 C 9.707031 -0.289062 8.242188 0.25 6.296875 0.25 C 4.660156 0.25 3.335938 -0.148438 2.328125 -0.953125 C 1.328125 -1.765625 0.828125 -2.960938 0.828125 -4.546875 C 0.828125 -6.179688 1.398438 -7.453125 2.546875 -8.359375 C 3.703125 -9.265625 5.347656 -9.71875 7.484375 -9.71875 L 10.71875 -9.71875 C 10.84375 -9.71875 10.90625 -9.785156 10.90625 -9.921875 L 10.90625 -10.59375 C 10.90625 -11.289062 10.6875 -11.835938 10.25 -12.234375 C 9.8125 -12.628906 9.175781 -12.828125 8.34375 -12.828125 C 7.707031 -12.828125 7.179688 -12.71875 6.765625 -12.5 C 6.347656 -12.289062 6.066406 -11.992188 5.921875 -11.609375 C 5.785156 -11.304688 5.570312 -11.164062 5.28125 -11.1875 L 1.734375 -11.640625 C 1.554688 -11.660156 1.421875 -11.707031 1.328125 -11.78125 C 1.234375 -11.851562 1.195312 -11.957031 1.21875 -12.09375 C 1.320312 -12.96875 1.6875 -13.753906 2.3125 -14.453125 C 2.945312 -15.160156 3.78125 -15.710938 4.8125 -16.109375 C 5.84375 -16.503906 6.988281 -16.703125 8.25 -16.703125 Z M 7.609375 -3.109375 C 8.523438 -3.109375 9.300781 -3.351562 9.9375 -3.84375 C 10.582031 -4.332031 10.90625 -4.957031 10.90625 -5.71875 L 10.90625 -6.84375 C 10.90625 -6.96875 10.84375 -7.03125 10.71875 -7.03125 L 8.4375 -7.03125 C 7.476562 -7.03125 6.722656 -6.847656 6.171875 -6.484375 C 5.617188 -6.128906 5.34375 -5.617188 5.34375 -4.953125 C 5.34375 -4.378906 5.550781 -3.925781 5.96875 -3.59375 C 6.382812 -3.269531 6.929688 -3.109375 7.609375 -3.109375 Z M 7.609375 -3.109375 "/></g></g></g><g fill="#ffffff" fill-opacity="1"><g transform="translate(249.200055, 213.947506)"><g><path d="M 2.265625 0 C 1.910156 0 1.734375 -0.179688 1.734375 -0.546875 L 1.734375 -21.84375 C 1.734375 -22.207031 1.910156 -22.390625 2.265625 -22.390625 L 5.6875 -22.390625 C 6.050781 -22.390625 6.234375 -22.207031 6.234375 -21.84375 L 6.234375 -0.546875 C 6.234375 -0.179688 6.050781 0 5.6875 0 Z M 2.265625 0 "/></g></g></g><g fill="#003984" fill-opacity="1"><g transform="translate(87.875969, 238.756925)"><g><path d="M 0.984375 0 C 0.910156 0 0.847656 -0.0195312 0.796875 -0.0625 C 0.742188 -0.113281 0.71875 -0.179688 0.71875 -0.265625 L 0.71875 -9.890625 C 0.71875 -9.960938 0.742188 -10.023438 0.796875 -10.078125 C 0.847656 -10.128906 0.910156 -10.15625 0.984375 -10.15625 L 2.859375 -10.15625 C 2.992188 -10.15625 3.09375 -10.09375 3.15625 -9.96875 L 5.09375 -6.859375 C 5.132812 -6.785156 5.179688 -6.785156 5.234375 -6.859375 L 7.171875 -9.96875 C 7.242188 -10.09375 7.347656 -10.15625 7.484375 -10.15625 L 9.359375 -10.15625 C 9.429688 -10.15625 9.488281 -10.128906 9.53125 -10.078125 C 9.582031 -10.023438 9.609375 -9.960938 9.609375 -9.890625 L 9.609375 -0.265625 C 9.609375 -0.179688 9.582031 -0.113281 9.53125 -0.0625 C 9.488281 -0.0195312 9.429688 0 9.359375 0 L 7.46875 0 C 7.382812 0 7.316406 -0.0195312 7.265625 -0.0625 C 7.222656 -0.113281 7.203125 -0.179688 7.203125 -0.265625 L 7.203125 -5.9375 C 7.203125 -5.976562 7.1875 -6.003906 7.15625 -6.015625 C 7.132812 -6.023438 7.113281 -6.003906 7.09375 -5.953125 L 5.921875 -4.046875 C 5.847656 -3.929688 5.742188 -3.875 5.609375 -3.875 L 4.734375 -3.875 C 4.597656 -3.875 4.492188 -3.929688 4.421875 -4.046875 L 3.25 -5.953125 C 3.226562 -6.003906 3.203125 -6.023438 3.171875 -6.015625 C 3.140625 -6.003906 3.125 -5.976562 3.125 -5.9375 L 3.125 -0.265625 C 3.125 -0.179688 3.097656 -0.113281 3.046875 -0.0625 C 3.003906 -0.0195312 2.945312 0 2.875 0 Z M 0.984375 0 "/></g></g></g><g fill="#003984" fill-opacity="1"><g transform="translate(99.661998, 238.756925)"><g><path d="M 3.75 -7.609375 C 4.394531 -7.609375 4.976562 -7.5 5.5 -7.28125 C 6.019531 -7.0625 6.425781 -6.757812 6.71875 -6.375 C 7.019531 -6 7.171875 -5.582031 7.171875 -5.125 L 7.171875 -0.265625 C 7.171875 -0.179688 7.144531 -0.113281 7.09375 -0.0625 C 7.050781 -0.0195312 6.992188 0 6.921875 0 L 5.03125 0 C 4.957031 0 4.894531 -0.0195312 4.84375 -0.0625 C 4.789062 -0.113281 4.765625 -0.179688 4.765625 -0.265625 L 4.765625 -0.546875 C 4.765625 -0.597656 4.753906 -0.628906 4.734375 -0.640625 C 4.710938 -0.648438 4.6875 -0.632812 4.65625 -0.59375 C 4.269531 -0.125 3.644531 0.109375 2.78125 0.109375 C 2.019531 0.109375 1.410156 -0.0664062 0.953125 -0.421875 C 0.503906 -0.785156 0.28125 -1.320312 0.28125 -2.03125 C 0.28125 -2.769531 0.535156 -3.34375 1.046875 -3.75 C 1.566406 -4.15625 2.316406 -4.359375 3.296875 -4.359375 L 4.671875 -4.359375 C 4.734375 -4.359375 4.765625 -4.394531 4.765625 -4.46875 L 4.765625 -4.71875 C 4.765625 -4.976562 4.679688 -5.179688 4.515625 -5.328125 C 4.347656 -5.472656 4.109375 -5.546875 3.796875 -5.546875 C 3.578125 -5.546875 3.382812 -5.507812 3.21875 -5.4375 C 3.0625 -5.375 2.953125 -5.273438 2.890625 -5.140625 C 2.835938 -5.078125 2.789062 -5.023438 2.75 -4.984375 C 2.707031 -4.953125 2.648438 -4.941406 2.578125 -4.953125 L 0.640625 -5.203125 C 0.460938 -5.222656 0.382812 -5.289062 0.40625 -5.40625 C 0.457031 -5.820312 0.628906 -6.195312 0.921875 -6.53125 C 1.222656 -6.863281 1.617188 -7.125 2.109375 -7.3125 C 2.597656 -7.507812 3.144531 -7.609375 3.75 -7.609375 Z M 3.515625 -1.609375 C 3.878906 -1.609375 4.175781 -1.703125 4.40625 -1.890625 C 4.644531 -2.078125 4.765625 -2.328125 4.765625 -2.640625 L 4.765625 -2.953125 C 4.765625 -3.023438 4.734375 -3.0625 4.671875 -3.0625 L 3.828125 -3.0625 C 3.460938 -3.0625 3.179688 -3 2.984375 -2.875 C 2.785156 -2.75 2.6875 -2.5625 2.6875 -2.3125 C 2.6875 -2.09375 2.757812 -1.921875 2.90625 -1.796875 C 3.050781 -1.671875 3.253906 -1.609375 3.515625 -1.609375 Z M 3.515625 -1.609375 "/></g></g></g><g fill="#003984" fill-opacity="1"><g transform="translate(108.867766, 238.756925)"><g><path d="M 4.84375 -7.609375 C 5.59375 -7.609375 6.207031 -7.367188 6.6875 -6.890625 C 7.164062 -6.410156 7.40625 -5.757812 7.40625 -4.9375 L 7.40625 -0.265625 C 7.40625 -0.179688 7.378906 -0.113281 7.328125 -0.0625 C 7.285156 -0.0195312 7.226562 0 7.15625 0 L 5.265625 0 C 5.179688 0 5.113281 -0.0195312 5.0625 -0.0625 C 5.019531 -0.113281 5 -0.179688 5 -0.265625 L 5 -4.421875 C 5 -4.765625 4.910156 -5.035156 4.734375 -5.234375 C 4.554688 -5.441406 4.316406 -5.546875 4.015625 -5.546875 C 3.710938 -5.546875 3.46875 -5.441406 3.28125 -5.234375 C 3.101562 -5.035156 3.015625 -4.765625 3.015625 -4.421875 L 3.015625 -0.265625 C 3.015625 -0.179688 2.988281 -0.113281 2.9375 -0.0625 C 2.894531 -0.0195312 2.832031 0 2.75 0 L 0.875 0 C 0.789062 0 0.722656 -0.0195312 0.671875 -0.0625 C 0.628906 -0.113281 0.609375 -0.179688 0.609375 -0.265625 L 0.609375 -7.234375 C 0.609375 -7.304688 0.628906 -7.367188 0.671875 -7.421875 C 0.722656 -7.472656 0.789062 -7.5 0.875 -7.5 L 2.75 -7.5 C 2.832031 -7.5 2.894531 -7.472656 2.9375 -7.421875 C 2.988281 -7.367188 3.015625 -7.304688 3.015625 -7.234375 L 3.015625 -6.828125 C 3.015625 -6.773438 3.023438 -6.742188 3.046875 -6.734375 C 3.078125 -6.734375 3.101562 -6.75 3.125 -6.78125 C 3.519531 -7.332031 4.09375 -7.609375 4.84375 -7.609375 Z M 4.84375 -7.609375 "/></g></g></g><g fill="#003984" fill-opacity="1"><g transform="translate(118.290979, 238.756925)"><g><path d="M 4.9375 -7.234375 C 4.9375 -7.304688 4.960938 -7.367188 5.015625 -7.421875 C 5.066406 -7.472656 5.128906 -7.5 5.203125 -7.5 L 7.09375 -7.5 C 7.164062 -7.5 7.222656 -7.472656 7.265625 -7.421875 C 7.316406 -7.367188 7.34375 -7.304688 7.34375 -7.234375 L 7.34375 -0.265625 C 7.34375 -0.179688 7.316406 -0.113281 7.265625 -0.0625 C 7.222656 -0.0195312 7.164062 0 7.09375 0 L 5.203125 0 C 5.128906 0 5.066406 -0.0195312 5.015625 -0.0625 C 4.960938 -0.113281 4.9375 -0.179688 4.9375 -0.265625 L 4.9375 -0.625 C 4.9375 -0.675781 4.925781 -0.703125 4.90625 -0.703125 C 4.882812 -0.710938 4.859375 -0.703125 4.828125 -0.671875 C 4.421875 -0.148438 3.820312 0.109375 3.03125 0.109375 C 2.289062 0.109375 1.691406 -0.117188 1.234375 -0.578125 C 0.785156 -1.046875 0.5625 -1.691406 0.5625 -2.515625 L 0.5625 -7.234375 C 0.5625 -7.304688 0.582031 -7.367188 0.625 -7.421875 C 0.675781 -7.472656 0.742188 -7.5 0.828125 -7.5 L 2.71875 -7.5 C 2.789062 -7.5 2.847656 -7.472656 2.890625 -7.421875 C 2.941406 -7.367188 2.96875 -7.304688 2.96875 -7.234375 L 2.96875 -3.078125 C 2.96875 -2.734375 3.054688 -2.457031 3.234375 -2.25 C 3.410156 -2.050781 3.644531 -1.953125 3.9375 -1.953125 C 4.207031 -1.953125 4.429688 -2.035156 4.609375 -2.203125 C 4.796875 -2.367188 4.90625 -2.585938 4.9375 -2.859375 Z M 4.9375 -7.234375 "/></g></g></g><g fill="#003984" fill-opacity="1"><g transform="translate(127.699694, 238.756925)"><g><path d="M 5.140625 -7.515625 C 5.222656 -7.515625 5.285156 -7.488281 5.328125 -7.4375 C 5.378906 -7.382812 5.40625 -7.320312 5.40625 -7.25 L 5.40625 -5.796875 C 5.40625 -5.722656 5.378906 -5.660156 5.328125 -5.609375 C 5.285156 -5.554688 5.222656 -5.53125 5.140625 -5.53125 L 3.90625 -5.53125 C 3.832031 -5.53125 3.796875 -5.5 3.796875 -5.4375 L 3.796875 -0.265625 C 3.796875 -0.179688 3.769531 -0.113281 3.71875 -0.0625 C 3.675781 -0.0195312 3.613281 0 3.53125 0 L 1.65625 0 C 1.570312 0 1.503906 -0.0195312 1.453125 -0.0625 C 1.410156 -0.113281 1.390625 -0.179688 1.390625 -0.265625 L 1.390625 -5.4375 C 1.390625 -5.5 1.359375 -5.53125 1.296875 -5.53125 L 0.59375 -5.53125 C 0.519531 -5.53125 0.457031 -5.554688 0.40625 -5.609375 C 0.351562 -5.660156 0.328125 -5.722656 0.328125 -5.796875 L 0.328125 -7.25 C 0.328125 -7.320312 0.351562 -7.382812 0.40625 -7.4375 C 0.457031 -7.488281 0.519531 -7.515625 0.59375 -7.515625 L 1.296875 -7.515625 C 1.359375 -7.515625 1.390625 -7.546875 1.390625 -7.609375 L 1.390625 -7.96875 C 1.390625 -8.539062 1.488281 -8.988281 1.6875 -9.3125 C 1.894531 -9.632812 2.21875 -9.859375 2.65625 -9.984375 C 3.101562 -10.117188 3.710938 -10.175781 4.484375 -10.15625 L 4.984375 -10.15625 C 5.066406 -10.15625 5.128906 -10.128906 5.171875 -10.078125 C 5.222656 -10.023438 5.25 -9.960938 5.25 -9.890625 L 5.25 -8.75 C 5.25 -8.664062 5.222656 -8.597656 5.171875 -8.546875 C 5.128906 -8.503906 5.066406 -8.484375 4.984375 -8.484375 L 4.515625 -8.484375 C 4.253906 -8.460938 4.066406 -8.398438 3.953125 -8.296875 C 3.847656 -8.191406 3.796875 -8.007812 3.796875 -7.75 L 3.796875 -7.609375 C 3.796875 -7.546875 3.832031 -7.515625 3.90625 -7.515625 Z M 5.140625 -7.515625 "/></g></g></g><g fill="#003984" fill-opacity="1"><g transform="translate(134.919546, 238.756925)"><g><path d="M 3.75 -7.609375 C 4.394531 -7.609375 4.976562 -7.5 5.5 -7.28125 C 6.019531 -7.0625 6.425781 -6.757812 6.71875 -6.375 C 7.019531 -6 7.171875 -5.582031 7.171875 -5.125 L 7.171875 -0.265625 C 7.171875 -0.179688 7.144531 -0.113281 7.09375 -0.0625 C 7.050781 -0.0195312 6.992188 0 6.921875 0 L 5.03125 0 C 4.957031 0 4.894531 -0.0195312 4.84375 -0.0625 C 4.789062 -0.113281 4.765625 -0.179688 4.765625 -0.265625 L 4.765625 -0.546875 C 4.765625 -0.597656 4.753906 -0.628906 4.734375 -0.640625 C 4.710938 -0.648438 4.6875 -0.632812 4.65625 -0.59375 C 4.269531 -0.125 3.644531 0.109375 2.78125 0.109375 C 2.019531 0.109375 1.410156 -0.0664062 0.953125 -0.421875 C 0.503906 -0.785156 0.28125 -1.320312 0.28125 -2.03125 C 0.28125 -2.769531 0.535156 -3.34375 1.046875 -3.75 C 1.566406 -4.15625 2.316406 -4.359375 3.296875 -4.359375 L 4.671875 -4.359375 C 4.734375 -4.359375 4.765625 -4.394531 4.765625 -4.46875 L 4.765625 -4.71875 C 4.765625 -4.976562 4.679688 -5.179688 4.515625 -5.328125 C 4.347656 -5.472656 4.109375 -5.546875 3.796875 -5.546875 C 3.578125 -5.546875 3.382812 -5.507812 3.21875 -5.4375 C 3.0625 -5.375 2.953125 -5.273438 2.890625 -5.140625 C 2.835938 -5.078125 2.789062 -5.023438 2.75 -4.984375 C 2.707031 -4.953125 2.648438 -4.941406 2.578125 -4.953125 L 0.640625 -5.203125 C 0.460938 -5.222656 0.382812 -5.289062 0.40625 -5.40625 C 0.457031 -5.820312 0.628906 -6.195312 0.921875 -6.53125 C 1.222656 -6.863281 1.617188 -7.125 2.109375 -7.3125 C 2.597656 -7.507812 3.144531 -7.609375 3.75 -7.609375 Z M 3.515625 -1.609375 C 3.878906 -1.609375 4.175781 -1.703125 4.40625 -1.890625 C 4.644531 -2.078125 4.765625 -2.328125 4.765625 -2.640625 L 4.765625 -2.953125 C 4.765625 -3.023438 4.734375 -3.0625 4.671875 -3.0625 L 3.828125 -3.0625 C 3.460938 -3.0625 3.179688 -3 2.984375 -2.875 C 2.785156 -2.75 2.6875 -2.5625 2.6875 -2.3125 C 2.6875 -2.09375 2.757812 -1.921875 2.90625 -1.796875 C 3.050781 -1.671875 3.253906 -1.609375 3.515625 -1.609375 Z M 3.515625 -1.609375 "/></g></g></g><g fill="#003984" fill-opacity="1"><g transform="translate(144.125316, 238.756925)"><g><path d="M 4.0625 0.109375 C 3.269531 0.109375 2.578125 -0.0859375 1.984375 -0.484375 C 1.390625 -0.878906 0.960938 -1.421875 0.703125 -2.109375 C 0.523438 -2.578125 0.4375 -3.132812 0.4375 -3.78125 C 0.4375 -4.425781 0.523438 -4.984375 0.703125 -5.453125 C 0.953125 -6.128906 1.375 -6.65625 1.96875 -7.03125 C 2.570312 -7.414062 3.269531 -7.609375 4.0625 -7.609375 C 4.863281 -7.609375 5.566406 -7.410156 6.171875 -7.015625 C 6.785156 -6.617188 7.195312 -6.117188 7.40625 -5.515625 C 7.46875 -5.359375 7.507812 -5.195312 7.53125 -5.03125 L 7.53125 -4.96875 C 7.53125 -4.84375 7.453125 -4.765625 7.296875 -4.734375 L 5.453125 -4.46875 L 5.375 -4.453125 C 5.25 -4.453125 5.175781 -4.507812 5.15625 -4.625 L 5.109375 -4.828125 C 5.046875 -5.035156 4.914062 -5.207031 4.71875 -5.34375 C 4.53125 -5.476562 4.304688 -5.546875 4.046875 -5.546875 C 3.535156 -5.546875 3.195312 -5.320312 3.03125 -4.875 C 2.925781 -4.601562 2.875 -4.234375 2.875 -3.765625 C 2.875 -3.347656 2.921875 -2.988281 3.015625 -2.6875 C 3.203125 -2.1875 3.546875 -1.9375 4.046875 -1.9375 C 4.296875 -1.9375 4.507812 -2 4.6875 -2.125 C 4.863281 -2.25 5 -2.4375 5.09375 -2.6875 L 5.109375 -2.75 C 5.117188 -2.800781 5.15625 -2.851562 5.21875 -2.90625 C 5.28125 -2.957031 5.34375 -2.976562 5.40625 -2.96875 L 7.265625 -2.6875 C 7.441406 -2.65625 7.515625 -2.554688 7.484375 -2.390625 C 7.460938 -2.234375 7.4375 -2.113281 7.40625 -2.03125 C 7.175781 -1.351562 6.757812 -0.828125 6.15625 -0.453125 C 5.550781 -0.078125 4.851562 0.109375 4.0625 0.109375 Z M 4.0625 0.109375 "/></g></g></g><g fill="#003984" fill-opacity="1"><g transform="translate(153.461552, 238.756925)"><g><path d="M 5.234375 -5.828125 C 5.234375 -5.753906 5.207031 -5.691406 5.15625 -5.640625 C 5.113281 -5.585938 5.050781 -5.5625 4.96875 -5.5625 L 3.765625 -5.5625 C 3.703125 -5.5625 3.671875 -5.53125 3.671875 -5.46875 L 3.671875 -2.921875 C 3.671875 -2.378906 3.890625 -2.109375 4.328125 -2.109375 L 4.78125 -2.109375 C 4.863281 -2.109375 4.925781 -2.082031 4.96875 -2.03125 C 5.019531 -1.976562 5.046875 -1.914062 5.046875 -1.84375 L 5.046875 -0.3125 C 5.046875 -0.164062 4.960938 -0.0820312 4.796875 -0.0625 C 4.347656 -0.0390625 4.035156 -0.03125 3.859375 -0.03125 C 3.015625 -0.03125 2.390625 -0.164062 1.984375 -0.4375 C 1.578125 -0.707031 1.367188 -1.207031 1.359375 -1.9375 L 1.359375 -5.46875 C 1.359375 -5.53125 1.328125 -5.5625 1.265625 -5.5625 L 0.546875 -5.5625 C 0.472656 -5.5625 0.410156 -5.585938 0.359375 -5.640625 C 0.316406 -5.691406 0.296875 -5.753906 0.296875 -5.828125 L 0.296875 -7.234375 C 0.296875 -7.304688 0.316406 -7.367188 0.359375 -7.421875 C 0.410156 -7.472656 0.472656 -7.5 0.546875 -7.5 L 1.265625 -7.5 C 1.328125 -7.5 1.359375 -7.53125 1.359375 -7.59375 L 1.359375 -9.234375 C 1.359375 -9.316406 1.382812 -9.378906 1.4375 -9.421875 C 1.488281 -9.472656 1.550781 -9.5 1.625 -9.5 L 3.40625 -9.5 C 3.488281 -9.5 3.550781 -9.472656 3.59375 -9.421875 C 3.644531 -9.378906 3.671875 -9.316406 3.671875 -9.234375 L 3.671875 -7.59375 C 3.671875 -7.53125 3.703125 -7.5 3.765625 -7.5 L 4.96875 -7.5 C 5.050781 -7.5 5.113281 -7.472656 5.15625 -7.421875 C 5.207031 -7.367188 5.234375 -7.304688 5.234375 -7.234375 Z M 5.234375 -5.828125 "/></g></g></g><g fill="#003984" fill-opacity="1"><g transform="translate(160.507454, 238.756925)"><g><path d="M 4.9375 -7.234375 C 4.9375 -7.304688 4.960938 -7.367188 5.015625 -7.421875 C 5.066406 -7.472656 5.128906 -7.5 5.203125 -7.5 L 7.09375 -7.5 C 7.164062 -7.5 7.222656 -7.472656 7.265625 -7.421875 C 7.316406 -7.367188 7.34375 -7.304688 7.34375 -7.234375 L 7.34375 -0.265625 C 7.34375 -0.179688 7.316406 -0.113281 7.265625 -0.0625 C 7.222656 -0.0195312 7.164062 0 7.09375 0 L 5.203125 0 C 5.128906 0 5.066406 -0.0195312 5.015625 -0.0625 C 4.960938 -0.113281 4.9375 -0.179688 4.9375 -0.265625 L 4.9375 -0.625 C 4.9375 -0.675781 4.925781 -0.703125 4.90625 -0.703125 C 4.882812 -0.710938 4.859375 -0.703125 4.828125 -0.671875 C 4.421875 -0.148438 3.820312 0.109375 3.03125 0.109375 C 2.289062 0.109375 1.691406 -0.117188 1.234375 -0.578125 C 0.785156 -1.046875 0.5625 -1.691406 0.5625 -2.515625 L 0.5625 -7.234375 C 0.5625 -7.304688 0.582031 -7.367188 0.625 -7.421875 C 0.675781 -7.472656 0.742188 -7.5 0.828125 -7.5 L 2.71875 -7.5 C 2.789062 -7.5 2.847656 -7.472656 2.890625 -7.421875 C 2.941406 -7.367188 2.96875 -7.304688 2.96875 -7.234375 L 2.96875 -3.078125 C 2.96875 -2.734375 3.054688 -2.457031 3.234375 -2.25 C 3.410156 -2.050781 3.644531 -1.953125 3.9375 -1.953125 C 4.207031 -1.953125 4.429688 -2.035156 4.609375 -2.203125 C 4.796875 -2.367188 4.90625 -2.585938 4.9375 -2.859375 Z M 4.9375 -7.234375 "/></g></g></g><g fill="#003984" fill-opacity="1"><g transform="translate(169.916172, 238.756925)"><g><path d="M 4.59375 -7.59375 C 4.90625 -7.59375 5.15625 -7.539062 5.34375 -7.4375 C 5.46875 -7.375 5.519531 -7.269531 5.5 -7.125 L 5.171875 -5.265625 C 5.160156 -5.140625 5.097656 -5.078125 4.984375 -5.078125 C 4.941406 -5.078125 4.90625 -5.082031 4.875 -5.09375 C 4.757812 -5.125 4.613281 -5.140625 4.4375 -5.140625 C 4.28125 -5.140625 4.164062 -5.128906 4.09375 -5.109375 C 3.789062 -5.066406 3.535156 -4.945312 3.328125 -4.75 C 3.117188 -4.5625 3.015625 -4.304688 3.015625 -3.984375 L 3.015625 -0.265625 C 3.015625 -0.179688 2.988281 -0.113281 2.9375 -0.0625 C 2.894531 -0.0195312 2.832031 0 2.75 0 L 0.875 0 C 0.789062 0 0.722656 -0.0195312 0.671875 -0.0625 C 0.628906 -0.113281 0.609375 -0.179688 0.609375 -0.265625 L 0.609375 -7.234375 C 0.609375 -7.304688 0.628906 -7.367188 0.671875 -7.421875 C 0.722656 -7.472656 0.789062 -7.5 0.875 -7.5 L 2.75 -7.5 C 2.832031 -7.5 2.894531 -7.472656 2.9375 -7.421875 C 2.988281 -7.367188 3.015625 -7.304688 3.015625 -7.234375 L 3.015625 -6.921875 C 3.015625 -6.867188 3.023438 -6.835938 3.046875 -6.828125 C 3.078125 -6.816406 3.101562 -6.832031 3.125 -6.875 C 3.507812 -7.351562 4 -7.59375 4.59375 -7.59375 Z M 4.59375 -7.59375 "/></g></g></g><g fill="#003984" fill-opacity="1"><g transform="translate(177.020057, 238.756925)"><g><path d="M 1.921875 -7.984375 C 1.503906 -7.984375 1.160156 -8.113281 0.890625 -8.375 C 0.628906 -8.632812 0.5 -8.96875 0.5 -9.375 C 0.5 -9.78125 0.628906 -10.109375 0.890625 -10.359375 C 1.160156 -10.617188 1.503906 -10.75 1.921875 -10.75 C 2.347656 -10.75 2.691406 -10.617188 2.953125 -10.359375 C 3.210938 -10.109375 3.34375 -9.78125 3.34375 -9.375 C 3.34375 -8.96875 3.210938 -8.632812 2.953125 -8.375 C 2.691406 -8.113281 2.347656 -7.984375 1.921875 -7.984375 Z M 0.984375 0 C 0.910156 0 0.847656 -0.0195312 0.796875 -0.0625 C 0.742188 -0.113281 0.71875 -0.179688 0.71875 -0.265625 L 0.71875 -7.234375 C 0.71875 -7.304688 0.742188 -7.367188 0.796875 -7.421875 C 0.847656 -7.472656 0.910156 -7.5 0.984375 -7.5 L 2.875 -7.5 C 2.945312 -7.5 3.003906 -7.472656 3.046875 -7.421875 C 3.097656 -7.367188 3.125 -7.304688 3.125 -7.234375 L 3.125 -0.265625 C 3.125 -0.179688 3.097656 -0.113281 3.046875 -0.0625 C 3.003906 -0.0195312 2.945312 0 2.875 0 Z M 0.984375 0 "/></g></g></g><g fill="#003984" fill-opacity="1"><g transform="translate(182.311962, 238.756925)"><g><path d="M 4.84375 -7.609375 C 5.59375 -7.609375 6.207031 -7.367188 6.6875 -6.890625 C 7.164062 -6.410156 7.40625 -5.757812 7.40625 -4.9375 L 7.40625 -0.265625 C 7.40625 -0.179688 7.378906 -0.113281 7.328125 -0.0625 C 7.285156 -0.0195312 7.226562 0 7.15625 0 L 5.265625 0 C 5.179688 0 5.113281 -0.0195312 5.0625 -0.0625 C 5.019531 -0.113281 5 -0.179688 5 -0.265625 L 5 -4.421875 C 5 -4.765625 4.910156 -5.035156 4.734375 -5.234375 C 4.554688 -5.441406 4.316406 -5.546875 4.015625 -5.546875 C 3.710938 -5.546875 3.46875 -5.441406 3.28125 -5.234375 C 3.101562 -5.035156 3.015625 -4.765625 3.015625 -4.421875 L 3.015625 -0.265625 C 3.015625 -0.179688 2.988281 -0.113281 2.9375 -0.0625 C 2.894531 -0.0195312 2.832031 0 2.75 0 L 0.875 0 C 0.789062 0 0.722656 -0.0195312 0.671875 -0.0625 C 0.628906 -0.113281 0.609375 -0.179688 0.609375 -0.265625 L 0.609375 -7.234375 C 0.609375 -7.304688 0.628906 -7.367188 0.671875 -7.421875 C 0.722656 -7.472656 0.789062 -7.5 0.875 -7.5 L 2.75 -7.5 C 2.832031 -7.5 2.894531 -7.472656 2.9375 -7.421875 C 2.988281 -7.367188 3.015625 -7.304688 3.015625 -7.234375 L 3.015625 -6.828125 C 3.015625 -6.773438 3.023438 -6.742188 3.046875 -6.734375 C 3.078125 -6.734375 3.101562 -6.75 3.125 -6.78125 C 3.519531 -7.332031 4.09375 -7.609375 4.84375 -7.609375 Z M 4.84375 -7.609375 "/></g></g></g><g fill="#003984" fill-opacity="1"><g transform="translate(191.735178, 238.756925)"><g><path d="M 5.15625 -7.234375 C 5.15625 -7.304688 5.179688 -7.367188 5.234375 -7.421875 C 5.285156 -7.472656 5.347656 -7.5 5.421875 -7.5 L 7.3125 -7.5 C 7.382812 -7.5 7.441406 -7.472656 7.484375 -7.421875 C 7.535156 -7.367188 7.5625 -7.304688 7.5625 -7.234375 L 7.5625 -0.84375 C 7.5625 0.476562 7.175781 1.425781 6.40625 2 C 5.644531 2.570312 4.6875 2.859375 3.53125 2.859375 C 3.15625 2.859375 2.722656 2.820312 2.234375 2.75 C 2.066406 2.726562 1.988281 2.632812 2 2.46875 L 2.078125 0.859375 C 2.085938 0.671875 2.1875 0.59375 2.375 0.625 C 2.757812 0.695312 3.097656 0.734375 3.390625 0.734375 C 3.941406 0.734375 4.375 0.609375 4.6875 0.359375 C 5 0.109375 5.15625 -0.285156 5.15625 -0.828125 L 5 -0.6875 C 4.664062 -0.363281 4.179688 -0.203125 3.546875 -0.203125 C 2.910156 -0.203125 2.328125 -0.34375 1.796875 -0.625 C 1.265625 -0.90625 0.882812 -1.398438 0.65625 -2.109375 C 0.5 -2.566406 0.421875 -3.132812 0.421875 -3.8125 C 0.421875 -4.5625 0.515625 -5.171875 0.703125 -5.640625 C 0.921875 -6.242188 1.273438 -6.722656 1.765625 -7.078125 C 2.253906 -7.429688 2.820312 -7.609375 3.46875 -7.609375 C 4.144531 -7.609375 4.671875 -7.410156 5.046875 -7.015625 C 5.078125 -6.972656 5.101562 -6.957031 5.125 -6.96875 C 5.144531 -6.976562 5.15625 -7.007812 5.15625 -7.0625 Z M 5.03125 -2.734375 C 5.113281 -2.960938 5.15625 -3.328125 5.15625 -3.828125 C 5.15625 -4.085938 5.144531 -4.289062 5.125 -4.4375 C 5.113281 -4.59375 5.078125 -4.738281 5.015625 -4.875 C 4.941406 -5.082031 4.816406 -5.242188 4.640625 -5.359375 C 4.472656 -5.484375 4.269531 -5.546875 4.03125 -5.546875 C 3.570312 -5.546875 3.25 -5.320312 3.0625 -4.875 C 2.914062 -4.601562 2.84375 -4.242188 2.84375 -3.796875 C 2.84375 -3.328125 2.90625 -2.976562 3.03125 -2.75 C 3.113281 -2.550781 3.242188 -2.390625 3.421875 -2.265625 C 3.597656 -2.140625 3.804688 -2.078125 4.046875 -2.078125 C 4.535156 -2.078125 4.863281 -2.296875 5.03125 -2.734375 Z M 5.03125 -2.734375 "/></g></g></g><g fill="#003984" fill-opacity="1"><g transform="translate(201.346832, 238.756925)"><g/></g></g><g fill="#003984" fill-opacity="1"><g transform="translate(205.696505, 238.756925)"><g><path d="M 7.90625 -8.359375 C 7.90625 -8.273438 7.878906 -8.207031 7.828125 -8.15625 C 7.773438 -8.113281 7.710938 -8.09375 7.640625 -8.09375 L 3.21875 -8.09375 C 3.15625 -8.09375 3.125 -8.054688 3.125 -7.984375 L 3.125 -6.265625 C 3.125 -6.191406 3.15625 -6.15625 3.21875 -6.15625 L 6.015625 -6.15625 C 6.097656 -6.15625 6.160156 -6.128906 6.203125 -6.078125 C 6.253906 -6.035156 6.28125 -5.976562 6.28125 -5.90625 L 6.28125 -4.375 C 6.28125 -4.300781 6.253906 -4.238281 6.203125 -4.1875 C 6.160156 -4.144531 6.097656 -4.125 6.015625 -4.125 L 3.21875 -4.125 C 3.15625 -4.125 3.125 -4.085938 3.125 -4.015625 L 3.125 -0.265625 C 3.125 -0.179688 3.097656 -0.113281 3.046875 -0.0625 C 2.992188 -0.0195312 2.929688 0 2.859375 0 L 0.96875 0 C 0.894531 0 0.832031 -0.0195312 0.78125 -0.0625 C 0.726562 -0.113281 0.703125 -0.179688 0.703125 -0.265625 L 0.703125 -9.890625 C 0.703125 -9.960938 0.726562 -10.023438 0.78125 -10.078125 C 0.832031 -10.128906 0.894531 -10.15625 0.96875 -10.15625 L 7.640625 -10.15625 C 7.710938 -10.15625 7.773438 -10.128906 7.828125 -10.078125 C 7.878906 -10.023438 7.90625 -9.960938 7.90625 -9.890625 Z M 7.90625 -8.359375 "/></g></g></g><g fill="#003984" fill-opacity="1"><g transform="translate(215.22119, 238.756925)"><g><path d="M 4.046875 0.109375 C 3.171875 0.109375 2.429688 -0.117188 1.828125 -0.578125 C 1.222656 -1.046875 0.816406 -1.675781 0.609375 -2.46875 C 0.492188 -2.863281 0.4375 -3.296875 0.4375 -3.765625 C 0.4375 -4.253906 0.5 -4.722656 0.625 -5.171875 C 0.84375 -5.941406 1.253906 -6.539062 1.859375 -6.96875 C 2.460938 -7.394531 3.195312 -7.609375 4.0625 -7.609375 C 4.914062 -7.609375 5.632812 -7.394531 6.21875 -6.96875 C 6.8125 -6.539062 7.222656 -5.945312 7.453125 -5.1875 C 7.585938 -4.75 7.65625 -4.285156 7.65625 -3.796875 C 7.65625 -3.347656 7.601562 -2.921875 7.5 -2.515625 C 7.289062 -1.710938 6.878906 -1.070312 6.265625 -0.59375 C 5.660156 -0.125 4.921875 0.109375 4.046875 0.109375 Z M 4.046875 -1.9375 C 4.328125 -1.9375 4.5625 -2.023438 4.75 -2.203125 C 4.9375 -2.390625 5.066406 -2.632812 5.140625 -2.9375 C 5.203125 -3.195312 5.234375 -3.472656 5.234375 -3.765625 C 5.234375 -4.054688 5.203125 -4.335938 5.140625 -4.609375 C 5.054688 -4.910156 4.921875 -5.140625 4.734375 -5.296875 C 4.554688 -5.460938 4.328125 -5.546875 4.046875 -5.546875 C 3.753906 -5.546875 3.519531 -5.460938 3.34375 -5.296875 C 3.164062 -5.140625 3.035156 -4.910156 2.953125 -4.609375 C 2.890625 -4.398438 2.859375 -4.117188 2.859375 -3.765625 C 2.859375 -3.472656 2.882812 -3.195312 2.9375 -2.9375 C 3.03125 -2.632812 3.164062 -2.390625 3.34375 -2.203125 C 3.53125 -2.023438 3.765625 -1.9375 4.046875 -1.9375 Z M 4.046875 -1.9375 "/></g></g></g><g fill="#003984" fill-opacity="1"><g transform="translate(224.760372, 238.756925)"><g><path d="M 4.59375 -7.59375 C 4.90625 -7.59375 5.15625 -7.539062 5.34375 -7.4375 C 5.46875 -7.375 5.519531 -7.269531 5.5 -7.125 L 5.171875 -5.265625 C 5.160156 -5.140625 5.097656 -5.078125 4.984375 -5.078125 C 4.941406 -5.078125 4.90625 -5.082031 4.875 -5.09375 C 4.757812 -5.125 4.613281 -5.140625 4.4375 -5.140625 C 4.28125 -5.140625 4.164062 -5.128906 4.09375 -5.109375 C 3.789062 -5.066406 3.535156 -4.945312 3.328125 -4.75 C 3.117188 -4.5625 3.015625 -4.304688 3.015625 -3.984375 L 3.015625 -0.265625 C 3.015625 -0.179688 2.988281 -0.113281 2.9375 -0.0625 C 2.894531 -0.0195312 2.832031 0 2.75 0 L 0.875 0 C 0.789062 0 0.722656 -0.0195312 0.671875 -0.0625 C 0.628906 -0.113281 0.609375 -0.179688 0.609375 -0.265625 L 0.609375 -7.234375 C 0.609375 -7.304688 0.628906 -7.367188 0.671875 -7.421875 C 0.722656 -7.472656 0.789062 -7.5 0.875 -7.5 L 2.75 -7.5 C 2.832031 -7.5 2.894531 -7.472656 2.9375 -7.421875 C 2.988281 -7.367188 3.015625 -7.304688 3.015625 -7.234375 L 3.015625 -6.921875 C 3.015625 -6.867188 3.023438 -6.835938 3.046875 -6.828125 C 3.078125 -6.816406 3.101562 -6.832031 3.125 -6.875 C 3.507812 -7.351562 4 -7.59375 4.59375 -7.59375 Z M 4.59375 -7.59375 "/></g></g></g><g fill="#003984" fill-opacity="1"><g transform="translate(231.864258, 238.756925)"><g/></g></g><g fill="#003984" fill-opacity="1"><g transform="translate(236.213932, 238.756925)"><g><path d="M 4.5 0.15625 C 3.71875 0.15625 3.023438 0 2.421875 -0.3125 C 1.828125 -0.625 1.363281 -1.066406 1.03125 -1.640625 C 0.707031 -2.210938 0.546875 -2.875 0.546875 -3.625 L 0.546875 -6.53125 C 0.546875 -7.257812 0.707031 -7.90625 1.03125 -8.46875 C 1.363281 -9.039062 1.828125 -9.484375 2.421875 -9.796875 C 3.023438 -10.109375 3.71875 -10.265625 4.5 -10.265625 C 5.28125 -10.265625 5.96875 -10.109375 6.5625 -9.796875 C 7.164062 -9.484375 7.628906 -9.039062 7.953125 -8.46875 C 8.285156 -7.90625 8.453125 -7.257812 8.453125 -6.53125 L 8.453125 -3.625 C 8.453125 -2.875 8.285156 -2.210938 7.953125 -1.640625 C 7.628906 -1.066406 7.164062 -0.625 6.5625 -0.3125 C 5.96875 0 5.28125 0.15625 4.5 0.15625 Z M 4.5 -1.90625 C 4.957031 -1.90625 5.328125 -2.050781 5.609375 -2.34375 C 5.898438 -2.644531 6.046875 -3.046875 6.046875 -3.546875 L 6.046875 -6.546875 C 6.046875 -7.046875 5.898438 -7.445312 5.609375 -7.75 C 5.328125 -8.050781 4.957031 -8.203125 4.5 -8.203125 C 4.039062 -8.203125 3.664062 -8.050781 3.375 -7.75 C 3.09375 -7.445312 2.953125 -7.046875 2.953125 -6.546875 L 2.953125 -3.546875 C 2.953125 -3.046875 3.09375 -2.644531 3.375 -2.34375 C 3.664062 -2.050781 4.039062 -1.90625 4.5 -1.90625 Z M 4.5 -1.90625 "/></g></g></g><g fill="#003984" fill-opacity="1"><g transform="translate(246.666348, 238.756925)"><g><path d="M 5.234375 -5.828125 C 5.234375 -5.753906 5.207031 -5.691406 5.15625 -5.640625 C 5.113281 -5.585938 5.050781 -5.5625 4.96875 -5.5625 L 3.765625 -5.5625 C 3.703125 -5.5625 3.671875 -5.53125 3.671875 -5.46875 L 3.671875 -2.921875 C 3.671875 -2.378906 3.890625 -2.109375 4.328125 -2.109375 L 4.78125 -2.109375 C 4.863281 -2.109375 4.925781 -2.082031 4.96875 -2.03125 C 5.019531 -1.976562 5.046875 -1.914062 5.046875 -1.84375 L 5.046875 -0.3125 C 5.046875 -0.164062 4.960938 -0.0820312 4.796875 -0.0625 C 4.347656 -0.0390625 4.035156 -0.03125 3.859375 -0.03125 C 3.015625 -0.03125 2.390625 -0.164062 1.984375 -0.4375 C 1.578125 -0.707031 1.367188 -1.207031 1.359375 -1.9375 L 1.359375 -5.46875 C 1.359375 -5.53125 1.328125 -5.5625 1.265625 -5.5625 L 0.546875 -5.5625 C 0.472656 -5.5625 0.410156 -5.585938 0.359375 -5.640625 C 0.316406 -5.691406 0.296875 -5.753906 0.296875 -5.828125 L 0.296875 -7.234375 C 0.296875 -7.304688 0.316406 -7.367188 0.359375 -7.421875 C 0.410156 -7.472656 0.472656 -7.5 0.546875 -7.5 L 1.265625 -7.5 C 1.328125 -7.5 1.359375 -7.53125 1.359375 -7.59375 L 1.359375 -9.234375 C 1.359375 -9.316406 1.382812 -9.378906 1.4375 -9.421875 C 1.488281 -9.472656 1.550781 -9.5 1.625 -9.5 L 3.40625 -9.5 C 3.488281 -9.5 3.550781 -9.472656 3.59375 -9.421875 C 3.644531 -9.378906 3.671875 -9.316406 3.671875 -9.234375 L 3.671875 -7.59375 C 3.671875 -7.53125 3.703125 -7.5 3.765625 -7.5 L 4.96875 -7.5 C 5.050781 -7.5 5.113281 -7.472656 5.15625 -7.421875 C 5.207031 -7.367188 5.234375 -7.304688 5.234375 -7.234375 Z M 5.234375 -5.828125 "/></g></g></g><g fill="#003984" fill-opacity="1"><g transform="translate(253.71225, 238.756925)"><g><path d="M 4.84375 -7.609375 C 5.59375 -7.609375 6.207031 -7.367188 6.6875 -6.890625 C 7.164062 -6.410156 7.40625 -5.757812 7.40625 -4.9375 L 7.40625 -0.265625 C 7.40625 -0.179688 7.378906 -0.113281 7.328125 -0.0625 C 7.285156 -0.0195312 7.226562 0 7.15625 0 L 5.265625 0 C 5.179688 0 5.113281 -0.0195312 5.0625 -0.0625 C 5.019531 -0.113281 5 -0.179688 5 -0.265625 L 5 -4.421875 C 5 -4.765625 4.910156 -5.035156 4.734375 -5.234375 C 4.554688 -5.441406 4.316406 -5.546875 4.015625 -5.546875 C 3.710938 -5.546875 3.46875 -5.441406 3.28125 -5.234375 C 3.101562 -5.035156 3.015625 -4.765625 3.015625 -4.421875 L 3.015625 -0.265625 C 3.015625 -0.179688 2.988281 -0.113281 2.9375 -0.0625 C 2.894531 -0.0195312 2.832031 0 2.75 0 L 0.875 0 C 0.789062 0 0.722656 -0.0195312 0.671875 -0.0625 C 0.628906 -0.113281 0.609375 -0.179688 0.609375 -0.265625 L 0.609375 -9.890625 C 0.609375 -9.960938 0.628906 -10.023438 0.671875 -10.078125 C 0.722656 -10.128906 0.789062 -10.15625 0.875 -10.15625 L 2.75 -10.15625 C 2.832031 -10.15625 2.894531 -10.128906 2.9375 -10.078125 C 2.988281 -10.023438 3.015625 -9.960938 3.015625 -9.890625 L 3.015625 -6.828125 C 3.015625 -6.773438 3.023438 -6.742188 3.046875 -6.734375 C 3.078125 -6.734375 3.101562 -6.75 3.125 -6.78125 C 3.519531 -7.332031 4.09375 -7.609375 4.84375 -7.609375 Z M 4.84375 -7.609375 "/></g></g></g><g fill="#003984" fill-opacity="1"><g transform="translate(263.135466, 238.756925)"><g><path d="M 4.375 -1.921875 C 4.675781 -1.921875 4.953125 -1.96875 5.203125 -2.0625 C 5.460938 -2.15625 5.679688 -2.28125 5.859375 -2.4375 C 5.910156 -2.5 5.972656 -2.53125 6.046875 -2.53125 C 6.109375 -2.53125 6.164062 -2.5 6.21875 -2.4375 L 7.125 -1.359375 C 7.175781 -1.296875 7.203125 -1.234375 7.203125 -1.171875 C 7.203125 -1.109375 7.175781 -1.046875 7.125 -0.984375 C 6.789062 -0.640625 6.375 -0.367188 5.875 -0.171875 C 5.375 0.015625 4.835938 0.109375 4.265625 0.109375 C 3.609375 0.109375 3.023438 -0.00390625 2.515625 -0.234375 C 2.003906 -0.472656 1.585938 -0.804688 1.265625 -1.234375 C 0.734375 -1.910156 0.46875 -2.769531 0.46875 -3.8125 C 0.46875 -4.28125 0.519531 -4.71875 0.625 -5.125 C 0.832031 -5.875 1.242188 -6.476562 1.859375 -6.9375 C 2.484375 -7.394531 3.210938 -7.625 4.046875 -7.625 C 5.015625 -7.625 5.796875 -7.320312 6.390625 -6.71875 C 6.984375 -6.125 7.367188 -5.289062 7.546875 -4.21875 C 7.585938 -3.945312 7.617188 -3.648438 7.640625 -3.328125 C 7.640625 -3.160156 7.550781 -3.078125 7.375 -3.078125 L 3 -3.078125 C 2.96875 -3.078125 2.941406 -3.066406 2.921875 -3.046875 C 2.898438 -3.023438 2.894531 -2.992188 2.90625 -2.953125 L 2.984375 -2.671875 C 3.078125 -2.429688 3.242188 -2.242188 3.484375 -2.109375 C 3.734375 -1.984375 4.03125 -1.921875 4.375 -1.921875 Z M 4 -5.546875 C 3.507812 -5.546875 3.175781 -5.3125 3 -4.84375 C 2.957031 -4.75 2.929688 -4.675781 2.921875 -4.625 L 2.921875 -4.59375 C 2.921875 -4.539062 2.957031 -4.515625 3.03125 -4.515625 L 5.015625 -4.515625 C 5.054688 -4.515625 5.082031 -4.523438 5.09375 -4.546875 C 5.113281 -4.566406 5.117188 -4.59375 5.109375 -4.625 L 5.046875 -4.8125 C 4.972656 -5.039062 4.847656 -5.21875 4.671875 -5.34375 C 4.492188 -5.476562 4.269531 -5.546875 4 -5.546875 Z M 4 -5.546875 "/></g></g></g><g fill="#003984" fill-opacity="1"><g transform="translate(272.587668, 238.756925)"><g><path d="M 4.59375 -7.59375 C 4.90625 -7.59375 5.15625 -7.539062 5.34375 -7.4375 C 5.46875 -7.375 5.519531 -7.269531 5.5 -7.125 L 5.171875 -5.265625 C 5.160156 -5.140625 5.097656 -5.078125 4.984375 -5.078125 C 4.941406 -5.078125 4.90625 -5.082031 4.875 -5.09375 C 4.757812 -5.125 4.613281 -5.140625 4.4375 -5.140625 C 4.28125 -5.140625 4.164062 -5.128906 4.09375 -5.109375 C 3.789062 -5.066406 3.535156 -4.945312 3.328125 -4.75 C 3.117188 -4.5625 3.015625 -4.304688 3.015625 -3.984375 L 3.015625 -0.265625 C 3.015625 -0.179688 2.988281 -0.113281 2.9375 -0.0625 C 2.894531 -0.0195312 2.832031 0 2.75 0 L 0.875 0 C 0.789062 0 0.722656 -0.0195312 0.671875 -0.0625 C 0.628906 -0.113281 0.609375 -0.179688 0.609375 -0.265625 L 0.609375 -7.234375 C 0.609375 -7.304688 0.628906 -7.367188 0.671875 -7.421875 C 0.722656 -7.472656 0.789062 -7.5 0.875 -7.5 L 2.75 -7.5 C 2.832031 -7.5 2.894531 -7.472656 2.9375 -7.421875 C 2.988281 -7.367188 3.015625 -7.304688 3.015625 -7.234375 L 3.015625 -6.921875 C 3.015625 -6.867188 3.023438 -6.835938 3.046875 -6.828125 C 3.078125 -6.816406 3.101562 -6.832031 3.125 -6.875 C 3.507812 -7.351562 4 -7.59375 4.59375 -7.59375 Z M 4.59375 -7.59375 "/></g></g></g><g fill="#003984" fill-opacity="1"><g transform="translate(279.691543, 238.756925)"><g><path d="M 3.796875 0.109375 C 3.109375 0.109375 2.507812 0.015625 2 -0.171875 C 1.5 -0.359375 1.109375 -0.625 0.828125 -0.96875 C 0.554688 -1.3125 0.421875 -1.703125 0.421875 -2.140625 L 0.421875 -2.21875 C 0.421875 -2.289062 0.441406 -2.351562 0.484375 -2.40625 C 0.535156 -2.457031 0.601562 -2.484375 0.6875 -2.484375 L 2.46875 -2.484375 C 2.632812 -2.484375 2.71875 -2.453125 2.71875 -2.390625 L 2.71875 -2.3125 C 2.71875 -2.125 2.816406 -1.96875 3.015625 -1.84375 C 3.222656 -1.726562 3.476562 -1.671875 3.78125 -1.671875 C 4.050781 -1.671875 4.269531 -1.710938 4.4375 -1.796875 C 4.601562 -1.890625 4.6875 -2.015625 4.6875 -2.171875 C 4.6875 -2.328125 4.597656 -2.441406 4.421875 -2.515625 C 4.242188 -2.585938 3.96875 -2.65625 3.59375 -2.71875 C 2.988281 -2.84375 2.492188 -2.984375 2.109375 -3.140625 C 1.628906 -3.347656 1.238281 -3.601562 0.9375 -3.90625 C 0.644531 -4.21875 0.5 -4.632812 0.5 -5.15625 C 0.5 -5.914062 0.789062 -6.515625 1.375 -6.953125 C 1.96875 -7.390625 2.742188 -7.609375 3.703125 -7.609375 C 4.347656 -7.609375 4.914062 -7.503906 5.40625 -7.296875 C 5.894531 -7.085938 6.273438 -6.796875 6.546875 -6.421875 C 6.816406 -6.046875 6.953125 -5.613281 6.953125 -5.125 C 6.953125 -5.070312 6.925781 -5.023438 6.875 -4.984375 C 6.820312 -4.953125 6.757812 -4.9375 6.6875 -4.9375 L 4.953125 -4.9375 C 4.785156 -4.9375 4.703125 -4.96875 4.703125 -5.03125 L 4.703125 -5.125 C 4.703125 -5.300781 4.613281 -5.445312 4.4375 -5.5625 C 4.257812 -5.675781 4.019531 -5.734375 3.71875 -5.734375 C 3.457031 -5.734375 3.238281 -5.6875 3.0625 -5.59375 C 2.894531 -5.507812 2.8125 -5.382812 2.8125 -5.21875 C 2.8125 -5.050781 2.898438 -4.929688 3.078125 -4.859375 C 3.265625 -4.785156 3.578125 -4.707031 4.015625 -4.625 C 4.609375 -4.507812 5.003906 -4.414062 5.203125 -4.34375 C 5.796875 -4.15625 6.257812 -3.894531 6.59375 -3.5625 C 6.925781 -3.238281 7.09375 -2.800781 7.09375 -2.25 C 7.09375 -1.488281 6.796875 -0.90625 6.203125 -0.5 C 5.609375 -0.09375 4.804688 0.109375 3.796875 0.109375 Z M 3.796875 0.109375 "/></g></g></g></svg>